<svg xmlns="http://www.w3.org/2000/svg" width="1000" height="256" viewBox="0 0 1000 256"><title>gh-pages-to-repo</title><path d="M185.4,56.4h2v7.4a6.1,6.1,0,0,1,4.4-2.3c2.8,0,4,1.6,4,4.7v7.2h-2v-7c0-2.2-.8-3.3-2.7-3.3s-2.3.7-3.7,2.1v8.1h-2V56.4Z" fill="#63666a"/><path d="M202.5,63.5h-3.3V62h3.4l0.3-3.3h1.6v3.3h5.7v1.6h-5.7V69c0,2.1.7,3.2,3,3.2a7.6,7.6,0,0,0,2.8-.5l0.4,1.4a11,11,0,0,1-3.6.7c-3.4,0-4.5-1.9-4.5-4.8V63.5Z" fill="#63666a"/><path d="M216.9,63.5h-3.3V62H217l0.3-3.3h1.6v3.3h5.7v1.6h-5.7V69c0,2.1.7,3.2,3,3.2a7.6,7.6,0,0,0,2.8-.5l0.4,1.4a11,11,0,0,1-3.6.7c-3.4,0-4.5-1.9-4.5-4.8V63.5Z" fill="#63666a"/><path d="M230.6,74.5v3.9h-2V61.8h1.6l0.2,1.5h0.1a6.1,6.1,0,0,1,4-1.8c3.1,0,4.8,2.3,4.8,6s-2.5,6.3-5.3,6.3a5.6,5.6,0,0,1-3.5-1.5v2.2Zm3.1-2.4c2.1,0,3.6-1.8,3.6-4.6s-1-4.3-3.3-4.3a5.1,5.1,0,0,0-3.4,1.8v5.8A5,5,0,0,0,233.7,72.1Z" fill="#63666a"/><path d="M243.5,70.7a7.6,7.6,0,0,0,4.8,1.6c2.1,0,3.1-.8,3.1-1.8s-0.9-1.6-3.8-2.3-4.4-1.7-4.4-3.3,1.7-3.3,4.9-3.3a8.7,8.7,0,0,1,4.7,1.5l-1,1.3a6.4,6.4,0,0,0-3.7-1.2c-2.2,0-2.9.8-2.9,1.7s1.4,1.5,3.6,2.1,4.7,1.7,4.7,3.5-1.8,3.5-5.2,3.5a10.2,10.2,0,0,1-5.7-1.8Z" fill="#63666a"/><path d="M262.4,61.1a2,2,0,1,1-1.9,2A1.9,1.9,0,0,1,262.4,61.1Zm0,8.6a2,2,0,1,1-1.9,2A1.9,1.9,0,0,1,262.4,69.7Z" fill="#63666a"/><path d="M273.8,77.3H272l7.9-20.9h1.8Z" fill="#63666a"/><path d="M288.2,77.3h-1.8l7.9-20.9H296Z" fill="#63666a"/><path d="M302,70.3a7.7,7.7,0,0,1,.2-1.6l1-5H300l0.4-1.9h3.4l1.1-3.7H307l-0.8,3.7h5.4l-0.4,2h-5.4l-1.1,5a4.2,4.2,0,0,0-.1,1,1.8,1.8,0,0,0,1.9,1.9,5.6,5.6,0,0,0,2.8-.9l0.8,1.8a8.3,8.3,0,0,1-4.4,1.2C303.2,73.8,302,72.4,302,70.3Z" fill="#9d35af"/><path d="M316.8,56.6h2.6l-1.1,5.6-0.5,1.7h0.1a7.1,7.1,0,0,1,4.8-2.4,2.7,2.7,0,0,1,3,3,8.1,8.1,0,0,1-.2,1.8L324,73.5h-2.6l1.4-6.9a6.8,6.8,0,0,0,.2-1.4,1.4,1.4,0,0,0-1.5-1.5c-1.3,0-2.7.9-4.1,2.5L316,73.5h-2.6Z" fill="#9d35af"/><path d="M328.2,68.6a7,7,0,0,1,6.8-7.2c3.2,0,5.1,2.1,5.1,5.2a7,7,0,0,1-6.8,7.2C330.1,73.8,328.2,71.7,328.2,68.6Zm9.3-1.8c0-2-1-3.2-2.7-3.2s-4,2.1-4,4.9,1,3.2,2.7,3.2S337.5,69.5,337.5,66.7Z" fill="#9d35af"/><path d="M343.7,61.7h1.9v1.6h0.1a4.1,4.1,0,0,1,3.2-1.8,1.6,1.6,0,0,1,1.7,1.8,4.1,4.1,0,0,1,3.2-1.8,1.8,1.8,0,0,1,1.8,2.1,6.6,6.6,0,0,1-.1,1.3l-1.8,8.7h-2.4l1.7-8.3a3.3,3.3,0,0,0,.1-0.7c0-.6-0.2-0.8-0.7-0.8s-1.3.5-1.9,1.6l-1.7,8.3h-2.2l1.7-8.3a5,5,0,0,0,.1-0.7,0.7,0.7,0,0,0-.7-0.8c-0.7,0-1.3.5-2,1.6l-1.6,8.3h-2.4Z" fill="#9d35af"/><path d="M357,69.3c0-4.3,3-7.8,6.4-7.8a3.8,3.8,0,0,1,3.4,1.7h0.1l0.5-1.4h2.1l-2.4,11.8h-2.1V71.8h-0.1a5.9,5.9,0,0,1-4.1,2C358.6,73.8,357,72.2,357,69.3Zm8.3,0.4,1-4.6a2.9,2.9,0,0,0-2.5-1.4c-2.3,0-4.2,2.4-4.2,5.4s0.9,2.8,2.2,2.8A4.8,4.8,0,0,0,365.4,69.6Z" fill="#9d35af"/><path d="M371.5,71.6L373,70a5.8,5.8,0,0,0,4.3,1.8c1.4,0,2.3-.5,2.3-1.4s-0.8-1.3-2.7-1.9-3.6-1.8-3.6-3.5,2.2-3.6,4.7-3.6a6.9,6.9,0,0,1,5,1.9l-1.4,1.5a5.9,5.9,0,0,0-3.8-1.5c-1.2,0-2,.5-2,1.3s0.8,1.2,2.7,1.9,3.6,1.6,3.6,3.5-2.3,3.7-5.2,3.7A7.3,7.3,0,0,1,371.5,71.6Z" fill="#9d35af"/><path d="M384.3,77.4l1.1-1.8a3.9,3.9,0,0,0,2.4.8c1.8,0,2.7-1.1,3.2-3.2l1.9-9.5h-5.1l0.4-2h7.7l-2.3,11.6c-0.7,3.3-2.3,5.1-5.6,5.1A6.4,6.4,0,0,1,384.3,77.4ZM393.1,58a2,2,0,0,1,2-2,1.6,1.6,0,0,1,1.8,1.6,2,2,0,0,1-2.1,2A1.6,1.6,0,0,1,393.1,58Z" fill="#9d35af"/><path d="M402.5,72.1h-0.1l-0.5,1.4h-2.1l3.4-16.9h2.6l-0.8,4.2-0.7,2.5h0.1a6.3,6.3,0,0,1,4-1.8c2.5,0,4,1.7,4,4.6s-2.9,7.7-6.4,7.7A4.1,4.1,0,0,1,402.5,72.1Zm7.2-5.7c0-1.9-.9-2.9-2.3-2.9a4.8,4.8,0,0,0-3.4,2.1L403,70.3a2.9,2.9,0,0,0,2.5,1.4C407.8,71.7,409.6,69.3,409.6,66.4Z" fill="#9d35af"/><path d="M418,61.7h2.1L419.6,65h0.1c1.3-2,3.1-3.5,5.1-3.5a4.4,4.4,0,0,1,2.4.6l-1,2.2a3.6,3.6,0,0,0-1.9-.5c-1.7,0-3.5,1.6-5,4.1l-1.2,5.7h-2.6Z" fill="#9d35af"/><path d="M429,69.3c0-4.3,3-7.8,6.4-7.8a3.8,3.8,0,0,1,3.4,1.7h0.1l0.5-1.4h2.1l-2.4,11.8H437V71.8h-0.1a5.9,5.9,0,0,1-4.1,2C430.6,73.8,429,72.2,429,69.3Zm8.3,0.4,1-4.6a2.9,2.9,0,0,0-2.5-1.4c-2.3,0-4.2,2.4-4.2,5.4s0.9,2.8,2.2,2.8A4.8,4.8,0,0,0,437.4,69.6Z" fill="#9d35af"/><path d="M443.4,69.3c0-4.3,3-7.8,6.4-7.8a3.8,3.8,0,0,1,3.3,1.6h0.1l0.3-2.3,0.8-4.2H457l-3.4,16.9h-2.1V71.8h-0.1a5.9,5.9,0,0,1-4.1,2C445,73.8,443.4,72.2,443.4,69.3Zm8.3,0.4,1-4.6a2.9,2.9,0,0,0-2.5-1.4c-2.3,0-4.2,2.4-4.2,5.4s0.9,2.8,2.2,2.8A4.8,4.8,0,0,0,451.8,69.6Z" fill="#9d35af"/><path d="M461.2,70.4a5.2,5.2,0,0,1,.2-1.4l2.3-10.4H460l0.4-2h6.2l-2.7,12.6a4,4,0,0,0-.1,1,1.4,1.4,0,0,0,1.6,1.5,4.7,4.7,0,0,0,2.1-.6l0.6,1.9a8,8,0,0,1-3.5.8A3.2,3.2,0,0,1,461.2,70.4Z" fill="#9d35af"/><path d="M472.5,68.6a6.9,6.9,0,0,1,6.8-7.2,4.3,4.3,0,0,1,4.7,4.6,8.3,8.3,0,0,1-.4,2.3h-8.5v0.2a2.9,2.9,0,0,0,3.1,3.3,6.4,6.4,0,0,0,3.8-1.4l0.9,1.7a8.9,8.9,0,0,1-5.2,1.7C474.6,73.8,472.5,72.1,472.5,68.6Zm2.9-2.1h6.1a4.6,4.6,0,0,0,0-.6,2.3,2.3,0,0,0-2.4-2.5A4.3,4.3,0,0,0,475.4,66.5Z" fill="#9d35af"/><path d="M484.5,77.8l0.7-1.8a3.4,3.4,0,0,0,1.4.3c1.4,0,2.1-.6,3-2l0.6-.9-2.8-11.8H490l1.2,5.8c0.2,1.1.5,2.6,0.6,3.6h0.1l1.9-3.6,3.4-5.8h2.6l-7.5,12.6c-1.6,2.8-3.2,4.1-5.8,4.1A3.9,3.9,0,0,1,484.5,77.8Z" fill="#9d35af"/><path d="M507.2,69.7a2,2,0,1,1-1.9,2A1.9,1.9,0,0,1,507.2,69.7Z" fill="#63666a"/><path d="M518,73.1h0a2.1,2.1,0,0,1-1.2-1.9,2.8,2.8,0,0,1,1.4-2.2h0a3.7,3.7,0,0,1-1.4-3,4.3,4.3,0,0,1,4.6-4.2,4.7,4.7,0,0,1,1.7.3h4.8v1.5h-3.1a3.6,3.6,0,0,1,1.1,2.4c0,2.5-2,4-4.5,4a5,5,0,0,1-2-.4,1.6,1.6,0,0,0-.9,1.3c0,0.9.9,1.3,2.4,1.3h2.6c3,0,4.4.8,4.4,2.7s-2.5,4.1-6.5,4.1-5.4-1.2-5.4-3.2A3.2,3.2,0,0,1,518,73.1Zm3.6,4.5c2.7,0,4.4-1.2,4.4-2.4s-0.9-1.4-2.7-1.4h-2.3l-1.8-.2a2.3,2.3,0,0,0-1.5,1.9C517.8,76.7,519.2,77.5,521.6,77.5Zm2.4-11.8a2.7,2.7,0,1,0-2.7,2.8A2.6,2.6,0,0,0,524.1,65.7Z" fill="#63666a"/><path d="M531,61.8h7.4V73.5h-2V63.5H531V61.8Zm4.6-3.9a1.6,1.6,0,1,1,1.6,1.5A1.5,1.5,0,0,1,535.6,57.9Z" fill="#63666a"/><path d="M548.1,63.5h-3.3V62h3.4l0.3-3.3h1.6v3.3h5.7v1.6h-5.7V69c0,2.1.7,3.2,3,3.2a7.6,7.6,0,0,0,2.8-.5l0.4,1.4a11,11,0,0,1-3.6.7c-3.4,0-4.5-1.9-4.5-4.8V63.5Z" fill="#63666a"/><path d="M559.8,56.4h2v7.4a6.1,6.1,0,0,1,4.4-2.3c2.8,0,4,1.6,4,4.7v7.2h-2v-7c0-2.2-.8-3.3-2.7-3.3s-2.3.7-3.7,2.1v8.1h-2V56.4Z" fill="#63666a"/><path d="M584.1,73.5h-1.6l-0.2-2h-0.1a5.7,5.7,0,0,1-4.3,2.3c-2.8,0-4.1-1.6-4.1-4.7V61.8h2v7c0,2.2.7,3.3,2.7,3.3s2.3-.6,3.6-2.2V61.8h2V73.5Z" fill="#63666a"/><path d="M588.6,56.4h2v6.9a5.9,5.9,0,0,1,4-1.8c3.1,0,4.8,2.3,4.8,5.9s-2.5,6.3-5.3,6.3a5.9,5.9,0,0,1-3.6-1.6h-0.1l-0.2,1.3h-1.6V56.4Zm5.1,15.7c2,0,3.6-1.8,3.6-4.6s-1-4.3-3.3-4.3a5.1,5.1,0,0,0-3.4,1.8v5.8A5,5,0,0,0,593.8,72.1Z" fill="#63666a"/><path d="M608,69.7a2,2,0,1,1-1.9,2A1.9,1.9,0,0,1,608,69.7Z" fill="#63666a"/><path d="M617.2,61.7h7.9V73.5h-2.8V63.9h-5.1V61.7Zm4.3-3.9a2,2,0,0,1,3.9,0A2,2,0,0,1,621.5,57.8Z" fill="#00deaf"/><path d="M636.8,61.4a6.2,6.2,0,1,1-5.9,6.2A5.9,5.9,0,0,1,636.8,61.4Zm0,10.1c1.9,0,3.1-1.6,3.1-3.9s-1.2-3.9-3.1-3.9-3.1,1.6-3.1,3.9S634.9,71.5,636.8,71.5Z" fill="#00deaf"/><path d="M648.2,77.3h-1.8l7.9-20.9H656Z" fill="#63666a"/><path d="M661.2,61.6h2.9l0.3,2.6h0.1a5.5,5.5,0,0,1,4.8-2.9,4.9,4.9,0,0,1,2.3.5l-0.7,3a6.5,6.5,0,0,0-2.1-.3,4.4,4.4,0,0,0-4,2.9v6.2h-3.5V61.6Z" fill="#5e54af"/><path d="M680.3,61.3c3.7,0,5.6,2.5,5.6,5.7a9.1,9.1,0,0,1-.1,1.5h-8a3.1,3.1,0,0,0,3.5,2.6,6.6,6.6,0,0,0,3.1-.8l1.2,2.1a9.1,9.1,0,0,1-4.7,1.4c-3.7,0-6.6-2.3-6.6-6.2A6.1,6.1,0,0,1,680.3,61.3Zm2.4,5a2.1,2.1,0,0,0-2.3-2.3,2.6,2.6,0,0,0-2.7,2.3h5Z" fill="#5e54af"/><path d="M692.5,74.4v3.5h-3.5V61.6h2.9l0.3,1.2h0.1a5.6,5.6,0,0,1,3.6-1.5c3,0,4.8,2.4,4.8,6s-2.5,6.4-5.2,6.4a4.3,4.3,0,0,1-3-1.3v1.9Zm2-3.5c1.3,0,2.4-1.1,2.4-3.5s-0.7-3.2-2.2-3.2a3,3,0,0,0-2.2,1.1v4.8A3.2,3.2,0,0,0,694.5,70.9Z" fill="#5e54af"/><path d="M708.8,61.3a6.2,6.2,0,1,1-6.1,6.2A6,6,0,0,1,708.8,61.3Zm0,9.6c1.6,0,2.4-1.3,2.4-3.4s-0.8-3.4-2.4-3.4-2.4,1.3-2.4,3.4S707.2,70.9,708.8,70.9Z" fill="#5e54af"/><path d="M719,65.1h8.4v2.7H719V65.1Z" fill="#5e54af"/><path d="M732.1,61.6H735l0.3,1.6h0.1a5.8,5.8,0,0,1,4.1-1.9c2.7,0,3.9,1.8,3.9,4.8v7.3h-3.5V66.6c0-1.6-.5-2.3-1.8-2.3a3.3,3.3,0,0,0-2.4,1.2v7.9h-3.5V61.6Z" fill="#5e54af"/><path d="M754.1,65.9c-0.1-1.1-.9-1.7-2.5-1.7a8.2,8.2,0,0,0-3.6,1.1l-1.2-2.3a11.2,11.2,0,0,1,5.6-1.6c3.3,0,5.4,1.7,5.4,5.4v6.8h-2.9l-0.3-1.3h-0.1a7.2,7.2,0,0,1-4.2,1.6,3.6,3.6,0,0,1-3.9-3.6C746.3,67.5,748.5,66.2,754.1,65.9Zm-2.8,5.2a4.6,4.6,0,0,0,2.8-1.1V68c-3.5.2-4.5,0.9-4.5,2S750.3,71.1,751.3,71.1Z" fill="#5e54af"/><path d="M760.1,61.6h2.6l0.3,1.5h0.1a2.7,2.7,0,0,1,2.5-1.8,2.1,2.1,0,0,1,2.1,1.9,2.8,2.8,0,0,1,2.6-1.9c1.7,0,2.6,1.5,2.6,3.8v8.4h-3.3V65.4c0-.7-0.2-1.1-0.7-1.1a1.4,1.4,0,0,0-1.1,1.2v8h-2.7V65.4c0-.7-0.2-1.1-0.7-1.1s-0.7.4-1.1,1.2v8h-3.3V61.6Z" fill="#5e54af"/><path d="M781.1,61.3c3.7,0,5.6,2.5,5.6,5.7a9.1,9.1,0,0,1-.1,1.5h-8a3.1,3.1,0,0,0,3.5,2.6,6.6,6.6,0,0,0,3.1-.8l1.2,2.1a9.1,9.1,0,0,1-4.7,1.4c-3.7,0-6.6-2.3-6.6-6.2A6.1,6.1,0,0,1,781.1,61.3Zm2.4,5a2.1,2.1,0,0,0-2.3-2.3,2.6,2.6,0,0,0-2.7,2.3h5Z" fill="#5e54af"/><path d="M791.7,77.3h-1.8l7.9-20.9h1.8Z" fill="#63666a"/><path d="M185.4,178.5h2v7.4a6.1,6.1,0,0,1,4.4-2.3c2.8,0,4,1.6,4,4.7v7.2h-2v-7c0-2.2-.8-3.3-2.7-3.3s-2.3.7-3.7,2.1v8.1h-2V178.5Z" fill="#63666a"/><path d="M202.5,185.5h-3.3V184h3.4l0.3-3.3h1.6v3.3h5.7v1.6h-5.7V191c0,2.1.7,3.2,3,3.2a7.6,7.6,0,0,0,2.8-.5l0.4,1.4a11,11,0,0,1-3.6.7c-3.4,0-4.5-1.9-4.5-4.8v-5.5Z" fill="#63666a"/><path d="M216.9,185.5h-3.3V184H217l0.3-3.3h1.6v3.3h5.7v1.6h-5.7V191c0,2.1.7,3.2,3,3.2a7.6,7.6,0,0,0,2.8-.5l0.4,1.4a11,11,0,0,1-3.6.7c-3.4,0-4.5-1.9-4.5-4.8v-5.5Z" fill="#63666a"/><path d="M230.6,196.5v3.9h-2V183.9h1.6l0.2,1.5h0.1a6.1,6.1,0,0,1,4-1.8c3.1,0,4.8,2.3,4.8,6s-2.5,6.3-5.3,6.3a5.6,5.6,0,0,1-3.5-1.5v2.2Zm3.1-2.4c2.1,0,3.6-1.8,3.6-4.6s-1-4.3-3.3-4.3a5.1,5.1,0,0,0-3.4,1.8v5.8A5,5,0,0,0,233.7,194.2Z" fill="#63666a"/><path d="M243.5,192.7a7.6,7.6,0,0,0,4.8,1.6c2.1,0,3.1-.8,3.1-1.8s-0.9-1.6-3.8-2.3-4.4-1.7-4.4-3.3,1.7-3.3,4.9-3.3a8.7,8.7,0,0,1,4.7,1.5l-1,1.3a6.4,6.4,0,0,0-3.7-1.2c-2.2,0-2.9.8-2.9,1.7s1.4,1.5,3.6,2.1,4.7,1.7,4.7,3.5-1.8,3.5-5.2,3.5a10.2,10.2,0,0,1-5.7-1.8Z" fill="#63666a"/><path d="M262.4,183.2a2,2,0,1,1-1.9,2A1.9,1.9,0,0,1,262.4,183.2Zm0,8.6a2,2,0,1,1-1.9,2A1.9,1.9,0,0,1,262.4,191.8Z" fill="#63666a"/><path d="M273.8,199.4H272l7.9-20.9h1.8Z" fill="#63666a"/><path d="M288.2,199.4h-1.8l7.9-20.9H296Z" fill="#63666a"/><path d="M302.1,195.1h0a2.1,2.1,0,0,1-1.2-1.9,2.8,2.8,0,0,1,1.4-2.2h0a3.7,3.7,0,0,1-1.4-3,4.3,4.3,0,0,1,4.6-4.2,4.7,4.7,0,0,1,1.7.3h4.8v1.5h-3.1a3.6,3.6,0,0,1,1.1,2.4c0,2.5-2,4-4.5,4a5,5,0,0,1-2-.4,1.6,1.6,0,0,0-.9,1.3c0,0.9.9,1.3,2.4,1.3h2.6c3,0,4.4.8,4.4,2.7s-2.5,4.1-6.5,4.1-5.4-1.2-5.4-3.2A3.2,3.2,0,0,1,302.1,195.1Zm3.6,4.5c2.7,0,4.4-1.2,4.4-2.4s-0.9-1.4-2.7-1.4h-2.3l-1.8-.2a2.3,2.3,0,0,0-1.5,1.9C301.8,198.7,303.2,199.6,305.7,199.6Zm2.4-11.8a2.7,2.7,0,1,0-2.7,2.8A2.6,2.6,0,0,0,308.1,187.8Z" fill="#63666a"/><path d="M315,183.9h7.4v11.7h-2V185.5H315v-1.6Zm4.6-3.9a1.6,1.6,0,1,1,1.6,1.5A1.5,1.5,0,0,1,319.6,180Z" fill="#63666a"/><path d="M332.1,185.5h-3.3V184h3.4l0.3-3.3h1.6v3.3h5.7v1.6h-5.7V191c0,2.1.7,3.2,3,3.2a7.6,7.6,0,0,0,2.8-.5l0.4,1.4a11,11,0,0,1-3.6.7c-3.4,0-4.5-1.9-4.5-4.8v-5.5Z" fill="#63666a"/><path d="M343.8,178.5h2v7.4a6.1,6.1,0,0,1,4.4-2.3c2.8,0,4,1.6,4,4.7v7.2h-2v-7c0-2.2-.8-3.3-2.7-3.3s-2.3.7-3.7,2.1v8.1h-2V178.5Z" fill="#63666a"/><path d="M368.1,195.5h-1.6l-0.2-2h-0.1a5.7,5.7,0,0,1-4.3,2.3c-2.8,0-4.1-1.6-4.1-4.7v-7.2h2v7c0,2.2.7,3.3,2.7,3.3s2.3-.6,3.6-2.2v-8.1h2v11.7Z" fill="#63666a"/><path d="M372.6,178.5h2v6.9a5.9,5.9,0,0,1,4-1.8c3.1,0,4.8,2.3,4.8,5.9s-2.5,6.3-5.3,6.3a5.9,5.9,0,0,1-3.6-1.6h-0.1l-0.2,1.3h-1.6V178.5Zm5.1,15.7c2,0,3.6-1.8,3.6-4.6s-1-4.3-3.3-4.3a5.1,5.1,0,0,0-3.4,1.8v5.8A5,5,0,0,0,377.8,194.2Z" fill="#63666a"/><path d="M392,191.8a2,2,0,1,1-1.9,2A1.9,1.9,0,0,1,392,191.8Z" fill="#63666a"/><path d="M407.6,183.5a6.3,6.3,0,0,1,4.4,1.7l-1.3,1.7a4.5,4.5,0,0,0-2.9-1.1,3.8,3.8,0,0,0-4,3.9,3.7,3.7,0,0,0,3.9,3.9,5.5,5.5,0,0,0,3.4-1.3l1.2,1.8a7.3,7.3,0,0,1-4.8,1.8c-3.7,0-6.5-2.3-6.5-6.2S404,183.5,407.6,183.5Z" fill="#00deaf"/><path d="M420.8,183.5a6.2,6.2,0,1,1-5.9,6.2A5.9,5.9,0,0,1,420.8,183.5Zm0,10.1c1.9,0,3.1-1.6,3.1-3.9s-1.2-3.9-3.1-3.9-3.1,1.6-3.1,3.9S418.9,193.6,420.8,193.6Z" fill="#00deaf"/><path d="M429.2,183.8h2.1l0.2,1.5h0.1a2.8,2.8,0,0,1,2.6-1.8,2.1,2.1,0,0,1,2.2,2,3,3,0,0,1,2.7-2c1.7,0,2.6,1.4,2.6,3.7v8.4h-2.6v-8.1c0-1.1-.3-1.6-1-1.6s-1.1.5-1.5,1.5v8.2h-2.2v-8.1c0-1.1-.3-1.6-1-1.6s-1,.5-1.5,1.5v8.2h-2.6V183.8Z" fill="#00deaf"/><path d="M446.6,199.4h-1.8l7.9-20.9h1.8Z" fill="#63666a"/><path d="M460.4,192.4a7.7,7.7,0,0,1,.2-1.6l1-5h-3.3l0.4-1.9h3.4l1.1-3.7h2.1l-0.8,3.7H470l-0.4,2h-5.4l-1.1,5a4.2,4.2,0,0,0-.1,1,1.8,1.8,0,0,0,1.9,1.9,5.6,5.6,0,0,0,2.8-.9l0.8,1.8a8.3,8.3,0,0,1-4.4,1.2C461.6,195.8,460.4,194.4,460.4,192.4Z" fill="#9d35af"/><path d="M475.2,178.6h2.6l-1.1,5.6-0.5,1.7h0.1a7.1,7.1,0,0,1,4.8-2.4,2.7,2.7,0,0,1,3,3,8.1,8.1,0,0,1-.2,1.8l-1.4,7.2h-2.6l1.4-6.9a6.8,6.8,0,0,0,.2-1.4,1.4,1.4,0,0,0-1.5-1.5c-1.3,0-2.7.9-4.1,2.5l-1.5,7.4h-2.6Z" fill="#9d35af"/><path d="M486.6,190.6a7,7,0,0,1,6.8-7.2c3.2,0,5.1,2.1,5.1,5.2a7,7,0,0,1-6.8,7.2C488.5,195.8,486.6,193.7,486.6,190.6Zm9.3-1.8c0-2-1-3.2-2.7-3.2s-4,2.1-4,4.9,1,3.2,2.7,3.2S495.9,191.6,495.9,188.8Z" fill="#9d35af"/><path d="M502.1,183.8H504v1.6H504a4.1,4.1,0,0,1,3.2-1.8,1.6,1.6,0,0,1,1.7,1.8,4.1,4.1,0,0,1,3.2-1.8,1.8,1.8,0,0,1,1.8,2.1,6.7,6.7,0,0,1-.1,1.3l-1.8,8.7h-2.4l1.7-8.3a3.3,3.3,0,0,0,.1-0.7c0-.6-0.2-0.8-0.7-0.8s-1.3.5-1.9,1.6l-1.7,8.3h-2.2l1.7-8.3a5.1,5.1,0,0,0,.1-0.7,0.7,0.7,0,0,0-.7-0.8c-0.7,0-1.3.5-2,1.6l-1.6,8.3h-2.4Z" fill="#9d35af"/><path d="M515.4,191.3c0-4.3,3-7.8,6.4-7.8a3.8,3.8,0,0,1,3.4,1.7h0.1l0.5-1.4h2.1l-2.4,11.8h-2.1v-1.7h-0.1a5.9,5.9,0,0,1-4.1,2C517,195.8,515.4,194.2,515.4,191.3Zm8.3,0.4,1-4.6a2.9,2.9,0,0,0-2.5-1.4c-2.3,0-4.2,2.4-4.2,5.4s0.9,2.8,2.2,2.8A4.7,4.7,0,0,0,523.8,191.7Z" fill="#9d35af"/><path d="M529.9,193.7l1.5-1.6a5.8,5.8,0,0,0,4.3,1.8c1.4,0,2.3-.5,2.3-1.4s-0.8-1.3-2.7-1.9-3.6-1.8-3.6-3.5,2.2-3.6,4.7-3.6a6.9,6.9,0,0,1,5,1.9l-1.4,1.5a5.9,5.9,0,0,0-3.8-1.5c-1.2,0-2,.5-2,1.3s0.8,1.2,2.7,1.9,3.6,1.6,3.6,3.5-2.3,3.7-5.2,3.7A7.3,7.3,0,0,1,529.9,193.7Z" fill="#9d35af"/><path d="M542.7,199.4l1.1-1.8a3.9,3.9,0,0,0,2.4.8c1.8,0,2.7-1.1,3.2-3.2l1.9-9.5h-5.1l0.4-2h7.7l-2.3,11.6c-0.7,3.3-2.3,5.1-5.6,5.1A6.4,6.4,0,0,1,542.7,199.4Zm8.8-19.4a2,2,0,0,1,2-2,1.6,1.6,0,0,1,1.8,1.6,2,2,0,0,1-2.1,2A1.6,1.6,0,0,1,551.5,180Z" fill="#9d35af"/><path d="M560.9,194.2h-0.1l-0.5,1.4h-2.1l3.4-16.9h2.6l-0.8,4.2-0.7,2.5h0.1a6.3,6.3,0,0,1,4-1.8c2.5,0,4,1.7,4,4.6s-2.9,7.7-6.4,7.7A4.1,4.1,0,0,1,560.9,194.2Zm7.2-5.7c0-1.9-.9-2.9-2.3-2.9a4.8,4.8,0,0,0-3.4,2.1l-0.9,4.7a2.9,2.9,0,0,0,2.5,1.4C566.2,193.7,568,191.4,568,188.4Z" fill="#9d35af"/><path d="M576.4,183.7h2.1L578,187h0.1c1.3-2,3.1-3.5,5.1-3.5a4.4,4.4,0,0,1,2.4.6l-1,2.2a3.6,3.6,0,0,0-1.9-.5c-1.7,0-3.5,1.6-5,4.1l-1.2,5.7H574Z" fill="#9d35af"/><path d="M587.4,191.3c0-4.3,3-7.8,6.4-7.8a3.8,3.8,0,0,1,3.4,1.7h0.1l0.5-1.4h2.1l-2.4,11.8h-2.1v-1.7h-0.1a5.9,5.9,0,0,1-4.1,2C589,195.8,587.4,194.2,587.4,191.3Zm8.3,0.4,1-4.6a2.9,2.9,0,0,0-2.5-1.4c-2.3,0-4.2,2.4-4.2,5.4s0.9,2.8,2.2,2.8A4.7,4.7,0,0,0,595.8,191.7Z" fill="#9d35af"/><path d="M601.8,191.3c0-4.3,3-7.8,6.4-7.8a3.8,3.8,0,0,1,3.3,1.6h0.1l0.3-2.3,0.8-4.2h2.6L612,195.5h-2.1v-1.7h-0.1a5.9,5.9,0,0,1-4.1,2C603.4,195.8,601.8,194.2,601.8,191.3Zm8.3,0.4,1-4.6a2.9,2.9,0,0,0-2.5-1.4c-2.3,0-4.2,2.4-4.2,5.4s0.9,2.8,2.2,2.8A4.7,4.7,0,0,0,610.2,191.7Z" fill="#9d35af"/><path d="M619.6,192.4a5.2,5.2,0,0,1,.2-1.4l2.3-10.4h-3.6l0.4-2H625l-2.7,12.6a3.9,3.9,0,0,0-.1,1,1.4,1.4,0,0,0,1.6,1.5,4.7,4.7,0,0,0,2.1-.6l0.6,1.9a8,8,0,0,1-3.5.8A3.2,3.2,0,0,1,619.6,192.4Z" fill="#9d35af"/><path d="M630.9,190.7a6.9,6.9,0,0,1,6.8-7.2,4.3,4.3,0,0,1,4.7,4.6,8.3,8.3,0,0,1-.4,2.3h-8.5v0.2a2.9,2.9,0,0,0,3.1,3.3,6.4,6.4,0,0,0,3.8-1.4l0.9,1.7a8.9,8.9,0,0,1-5.2,1.7C633,195.8,630.9,194.1,630.9,190.7Zm2.9-2.1h6.1a4.6,4.6,0,0,0,0-.6,2.3,2.3,0,0,0-2.4-2.5A4.3,4.3,0,0,0,633.8,188.6Z" fill="#9d35af"/><path d="M642.9,199.9l0.7-1.8a3.4,3.4,0,0,0,1.4.3c1.4,0,2.1-.6,3-2l0.6-.9-2.8-11.8h2.5l1.2,5.8c0.2,1.1.5,2.6,0.6,3.6h0.1l1.9-3.6,3.4-5.8h2.6l-7.5,12.6c-1.6,2.8-3.2,4.1-5.8,4.1A3.9,3.9,0,0,1,642.9,199.9Z" fill="#9d35af"/><path d="M662.5,199.4h-1.8l7.9-20.9h1.8Z" fill="#63666a"/><path d="M675.6,183.6h2.9l0.3,2.6h0.1a5.5,5.5,0,0,1,4.8-2.9,4.9,4.9,0,0,1,2.3.5l-0.7,3a6.5,6.5,0,0,0-2.1-.3,4.4,4.4,0,0,0-4,2.9v6.2h-3.5V183.6Z" fill="#5e54af"/><path d="M694.7,183.4c3.7,0,5.6,2.5,5.6,5.7a9.1,9.1,0,0,1-.1,1.5h-8a3.1,3.1,0,0,0,3.5,2.6,6.6,6.6,0,0,0,3.1-.8l1.2,2.1a9.1,9.1,0,0,1-4.7,1.4c-3.7,0-6.6-2.3-6.6-6.2A6.1,6.1,0,0,1,694.7,183.4Zm2.4,5a2.1,2.1,0,0,0-2.3-2.3,2.6,2.6,0,0,0-2.7,2.3h5Z" fill="#5e54af"/><path d="M706.9,196.5V200h-3.5V183.6h2.9l0.3,1.2h0.1a5.6,5.6,0,0,1,3.6-1.5c3,0,4.8,2.4,4.8,6s-2.5,6.4-5.2,6.4a4.3,4.3,0,0,1-3-1.3v1.9Zm2-3.5c1.3,0,2.4-1.1,2.4-3.5s-0.7-3.2-2.2-3.2a3,3,0,0,0-2.2,1.1v4.8A3.2,3.2,0,0,0,708.9,193Z" fill="#5e54af"/><path d="M723.2,183.4a6.2,6.2,0,1,1-6.1,6.2A6,6,0,0,1,723.2,183.4Zm0,9.6c1.6,0,2.4-1.3,2.4-3.4s-0.8-3.4-2.4-3.4-2.4,1.3-2.4,3.4S721.6,193,723.2,193Z" fill="#5e54af"/><path d="M733.4,187.1h8.4v2.7h-8.4v-2.7Z" fill="#5e54af"/><path d="M746.5,183.6h2.9l0.3,1.6h0.1a5.8,5.8,0,0,1,4.1-1.9c2.7,0,3.9,1.8,3.9,4.8v7.3h-3.5v-6.9c0-1.6-.5-2.3-1.8-2.3a3.3,3.3,0,0,0-2.4,1.2v7.9h-3.5V183.6Z" fill="#5e54af"/><path d="M768.5,187.9c-0.1-1.1-.9-1.7-2.5-1.7a8.2,8.2,0,0,0-3.6,1.1l-1.2-2.3a11.2,11.2,0,0,1,5.6-1.6c3.3,0,5.4,1.7,5.4,5.4v6.8h-2.9l-0.3-1.3h-0.1a7.2,7.2,0,0,1-4.2,1.6,3.6,3.6,0,0,1-3.9-3.6C760.7,189.6,762.9,188.2,768.5,187.9Zm-2.8,5.2a4.6,4.6,0,0,0,2.8-1.1v-2c-3.5.2-4.5,0.9-4.5,2S764.7,193.1,765.7,193.1Z" fill="#5e54af"/><path d="M774.5,183.6h2.6l0.3,1.5h0.1a2.7,2.7,0,0,1,2.5-1.8,2.1,2.1,0,0,1,2.1,1.9,2.8,2.8,0,0,1,2.6-1.9c1.7,0,2.6,1.5,2.6,3.8v8.4H784v-8.1c0-.7-0.2-1.1-0.7-1.1a1.4,1.4,0,0,0-1.1,1.2v8h-2.7v-8.1c0-.7-0.2-1.1-0.7-1.1s-0.7.4-1.1,1.2v8h-3.3V183.6Z" fill="#5e54af"/><path d="M795.5,183.4c3.7,0,5.6,2.5,5.6,5.7a9.1,9.1,0,0,1-.1,1.5h-8a3.1,3.1,0,0,0,3.5,2.6,6.6,6.6,0,0,0,3.1-.8l1.2,2.1a9.1,9.1,0,0,1-4.7,1.4c-3.7,0-6.6-2.3-6.6-6.2A6.1,6.1,0,0,1,795.5,183.4Zm2.4,5a2.1,2.1,0,0,0-2.3-2.3,2.6,2.6,0,0,0-2.7,2.3h5Z" fill="#5e54af"/><path d="M806.5,199.4h-1.8l7.9-20.9h1.8Z" fill="#63666a"/><line x1="400" y1="84" x2="534.1" y2="168.6" fill="none" stroke="#9d35af" stroke-linecap="round" stroke-linejoin="round" stroke-width="4"/><polygon points="523.8 170 533.1 167.9 531 158.6 535.9 161.6 538 171 528.6 173.1 523.8 170" fill="#9d35af"/><line x1="723.2" y1="84" x2="723" y2="166.4" fill="none" stroke="#5e54af" stroke-linecap="round" stroke-linejoin="round" stroke-width="4"/><polygon points="716.2 158.4 723 165.2 729.8 158.5 729.8 164.2 723 171 716.2 164.2 716.2 158.4" fill="#5e54af"/><rect x="418.5" y="125.8" width="209.1" height="4" transform="translate(-0.5 253.5) rotate(-27.2)" fill="#fff" stroke="#fff" stroke-miterlimit="10" stroke-width="6"/><polygon points="434 166 431.1 175.1 440.3 178.1 435.1 180.7 426 177.8 428.9 168.6 434 166" fill="#fff" stroke="#fff" stroke-miterlimit="10" stroke-width="6"/><line x1="616" y1="80" x2="430.1" y2="175.7" fill="none" stroke="#00deaf" stroke-linecap="round" stroke-linejoin="round" stroke-width="4"/><polygon points="434 166 431.1 175.1 440.3 178.1 435.1 180.7 426 177.8 428.9 168.6 434 166" fill="#00deaf"/></svg>